<svg width="531" height="417" viewBox="0 0 531 417" fill="none" xmlns="http://www.w3.org/2000/svg">
<path d="M476.977 125.426C479.478 124.172 482.166 123.043 485.043 122.04C487.794 121.036 490.795 120.221 494.047 119.594C490.795 118.841 487.794 117.964 485.043 116.96C482.166 116.082 479.478 114.953 476.977 113.574L392.753 70.8654C390.252 69.6111 388.501 68.1687 387.501 66.5382C386.5 64.9076 386 63.0889 386 61.0821L386 37L531 112.633L531 126.555L386 202L386 178.106C386 175.974 386.5 174.092 387.501 172.462C388.501 170.957 390.252 169.577 392.753 168.323L476.977 125.426Z" fill="url(#paint0_linear)"/>
<path d="M54.0233 113.574C51.5222 114.828 48.8335 115.957 45.9573 116.96C43.2061 117.964 40.2048 118.779 36.9534 119.406C40.2048 120.159 43.2061 121.036 45.9573 122.04C48.8335 122.918 51.5222 124.047 54.0233 125.426L138.247 168.135C140.748 169.389 142.499 170.831 143.499 172.462C144.5 174.092 145 175.911 145 177.918V202L0 126.367L0 112.445L145 37V60.894C145 63.0262 144.5 64.9076 143.499 66.5382C142.499 68.0433 140.748 69.423 138.247 70.6773L54.0233 113.574Z" fill="url(#paint1_linear)"/>
<circle cx="265.5" cy="120.5" r="120.5" fill="url(#paint2_linear)"/>
<circle cx="265" cy="121" r="77" fill="url(#paint3_linear)"/>
<circle cx="297.5" cy="77.5" r="12.5" fill="white"/>
<path d="M99.336 383.016C88.776 383.016 79.272 380.808 70.824 376.392C62.472 371.88 55.896 365.64 51.096 357.672C46.296 349.704 43.896 340.68 43.896 330.6C43.896 320.52 46.296 311.496 51.096 303.528C55.896 295.56 62.472 289.368 70.824 284.952C79.272 280.44 88.776 278.184 99.336 278.184C108.552 278.184 116.856 279.816 124.248 283.08C131.64 286.344 137.784 291.048 142.68 297.192L124.536 313.608C118.008 305.736 110.088 301.8 100.776 301.8C95.304 301.8 90.408 303 86.088 305.4C81.864 307.8 78.552 311.208 76.152 315.624C73.848 319.944 72.696 324.936 72.696 330.6C72.696 336.264 73.848 341.304 76.152 345.72C78.552 350.04 81.864 353.4 86.088 355.8C90.408 358.2 95.304 359.4 100.776 359.4C110.088 359.4 118.008 355.464 124.536 347.592L142.68 364.008C137.784 370.152 131.64 374.856 124.248 378.12C116.856 381.384 108.552 383.016 99.336 383.016ZM187.613 382.4C180.213 382.4 173.546 380.833 167.613 377.7C161.746 374.567 157.113 370.233 153.713 364.7C150.379 359.167 148.713 352.933 148.713 346C148.713 339.067 150.379 332.833 153.713 327.3C157.113 321.767 161.746 317.433 167.613 314.3C173.546 311.167 180.213 309.6 187.613 309.6C195.013 309.6 201.646 311.167 207.513 314.3C213.446 317.433 218.079 321.767 221.413 327.3C224.813 332.833 226.513 339.067 226.513 346C226.513 352.933 224.813 359.167 221.413 364.7C218.079 370.233 213.446 374.567 207.513 377.7C201.646 380.833 195.013 382.4 187.613 382.4ZM187.613 366C191.146 366 194.346 365.167 197.213 363.5C200.079 361.833 202.346 359.5 204.013 356.5C205.679 353.433 206.513 349.933 206.513 346C206.513 342.067 205.679 338.6 204.013 335.6C202.346 332.533 200.079 330.167 197.213 328.5C194.346 326.833 191.146 326 187.613 326C184.079 326 180.879 326.833 178.013 328.5C175.146 330.167 172.879 332.533 171.213 335.6C169.546 338.6 168.713 342.067 168.713 346C168.713 349.933 169.546 353.433 171.213 356.5C172.879 359.5 175.146 361.833 178.013 363.5C180.879 365.167 184.079 366 187.613 366ZM236.883 311H269.983C277.649 311 284.449 312.433 290.383 315.3C296.316 318.167 300.916 322.233 304.183 327.5C307.449 332.767 309.083 338.933 309.083 346C309.083 353.067 307.449 359.233 304.183 364.5C300.916 369.767 296.316 373.833 290.383 376.7C284.449 379.567 277.649 381 269.983 381H236.883V311ZM269.183 365.2C275.183 365.2 279.983 363.5 283.583 360.1C287.249 356.7 289.083 352 289.083 346C289.083 340 287.249 335.3 283.583 331.9C279.983 328.5 275.183 326.8 269.183 326.8H256.683V365.2H269.183ZM403.508 358.968V381H322.58V280.2H401.636V302.232H350.804V319.224H395.588V340.536H350.804V358.968H403.508ZM416.25 311H449.35C457.017 311 463.817 312.433 469.75 315.3C475.683 318.167 480.283 322.233 483.55 327.5C486.817 332.767 488.45 338.933 488.45 346C488.45 353.067 486.817 359.233 483.55 364.5C480.283 369.767 475.683 373.833 469.75 376.7C463.817 379.567 457.017 381 449.35 381H416.25V311ZM448.55 365.2C454.55 365.2 459.35 363.5 462.95 360.1C466.617 356.7 468.45 352 468.45 346C468.45 340 466.617 335.3 462.95 331.9C459.35 328.5 454.55 326.8 448.55 326.8H436.05V365.2H448.55Z" fill="url(#paint4_linear)"/>
<defs>
<linearGradient id="paint0_linear" x1="347.5" y1="246" x2="552.5" y2="37" gradientUnits="userSpaceOnUse">
<stop stop-color="#35244F"/>
<stop offset="1" stop-color="#4B00C5"/>
</linearGradient>
<linearGradient id="paint1_linear" x1="183.5" y1="-7.00002" x2="-21.5" y2="202" gradientUnits="userSpaceOnUse">
<stop stop-color="#2E2E2E"/>
<stop offset="1" stop-color="#4B00C5"/>
</linearGradient>
<linearGradient id="paint2_linear" x1="184.5" y1="16.5" x2="342.5" y2="227.5" gradientUnits="userSpaceOnUse">
<stop stop-color="#11007C"/>
<stop offset="1" stop-color="#080039"/>
</linearGradient>
<linearGradient id="paint3_linear" x1="326.5" y1="44" x2="202" y2="198" gradientUnits="userSpaceOnUse">
<stop stop-color="#FF7890"/>
<stop offset="1" stop-color="#FF280B"/>
</linearGradient>
<linearGradient id="paint4_linear" x1="10" y1="281.5" x2="543" y2="388" gradientUnits="userSpaceOnUse">
<stop stop-color="#450BA4"/>
<stop offset="1" stop-color="#3A1D69"/>
</linearGradient>
</defs>
</svg>
