<svg width="159" height="125" viewBox="0 0 159 125" fill="none" xmlns="http://www.w3.org/2000/svg">
<path d="M142.824 37.5571C143.572 37.1815 144.378 36.8435 145.239 36.543C146.063 36.2426 146.961 35.9984 147.935 35.8106C146.961 35.5853 146.063 35.3224 145.239 35.0219C144.378 34.759 143.572 34.421 142.824 34.0079L117.604 21.2196C116.855 20.844 116.331 20.4121 116.031 19.9239C115.732 19.4356 115.582 18.891 115.582 18.2901L115.582 11.0791L159 33.7262L159 37.8951L115.582 60.4859L115.582 53.3312C115.582 52.6927 115.732 52.1293 116.031 51.6411C116.331 51.1904 116.855 50.7773 117.604 50.4017L142.824 37.5571Z" fill="url(#paint0_linear)"/>
<path d="M16.1765 34.0079C15.4276 34.3835 14.6225 34.7215 13.7612 35.0219C12.9374 35.3224 12.0387 35.5665 11.0652 35.7543C12.0387 35.9797 12.9374 36.2425 13.7612 36.543C14.6225 36.8059 15.4276 37.1439 16.1765 37.5571L41.396 50.3454C42.1449 50.7209 42.6692 51.1528 42.9687 51.6411C43.2683 52.1293 43.4181 52.6739 43.4181 53.2748V60.4859L0 37.8387L0 33.6699L43.4181 11.0791V18.2338C43.4181 18.8723 43.2683 19.4356 42.9687 19.9239C42.6692 20.3745 42.1449 20.7877 41.396 21.1633L16.1765 34.0079Z" fill="url(#paint1_linear)"/>
<circle cx="79.5" cy="36.0819" r="36.0819" fill="url(#paint2_linear)"/>
<g filter="url(#filter0_d)">
<circle cx="79.3503" cy="36.2316" r="23.0565" fill="url(#paint3_linear)"/>
</g>
<circle cx="89.0819" cy="23.2062" r="3.74294" fill="white"/>
<path d="M29.7447 114.767C26.5826 114.767 23.7368 114.106 21.2072 112.784C18.7063 111.433 16.7372 109.564 15.2999 107.179C13.8626 104.793 13.144 102.091 13.144 99.0723C13.144 96.054 13.8626 93.3519 15.2999 90.966C16.7372 88.5801 18.7063 86.726 21.2072 85.4037C23.7368 84.0526 26.5826 83.3771 29.7447 83.3771C32.5043 83.3771 34.9908 83.8658 37.2042 84.8431C39.4176 85.8205 41.2574 87.229 42.7234 89.0688L37.2904 93.9843C35.3357 91.6271 32.9642 90.4486 30.1759 90.4486C28.5374 90.4486 27.0713 90.8079 25.7778 91.5265C24.5129 92.2452 23.5212 93.2657 22.8026 94.588C22.1127 95.8815 21.7677 97.3763 21.7677 99.0723C21.7677 100.768 22.1127 102.277 22.8026 103.6C23.5212 104.893 24.5129 105.899 25.7778 106.618C27.0713 107.337 28.5374 107.696 30.1759 107.696C32.9642 107.696 35.3357 106.517 37.2904 104.16L42.7234 109.076C41.2574 110.916 39.4176 112.324 37.2042 113.301C34.9908 114.279 32.5043 114.767 29.7447 114.767ZM56.1777 114.583C53.9619 114.583 51.9657 114.114 50.189 113.176C48.4324 112.237 47.045 110.94 46.0269 109.283C45.0288 107.626 44.5297 105.76 44.5297 103.684C44.5297 101.608 45.0288 99.741 46.0269 98.0842C47.045 96.4273 48.4324 95.1297 50.189 94.1915C51.9657 93.2533 53.9619 92.7842 56.1777 92.7842C58.3936 92.7842 60.3798 93.2533 62.1365 94.1915C63.9132 95.1297 65.3005 96.4273 66.2987 98.0842C67.3167 99.741 67.8258 101.608 67.8258 103.684C67.8258 105.76 67.3167 107.626 66.2987 109.283C65.3005 110.94 63.9132 112.237 62.1365 113.176C60.3798 114.114 58.3936 114.583 56.1777 114.583ZM56.1777 109.672C57.2358 109.672 58.1939 109.423 59.0523 108.924C59.9107 108.425 60.5894 107.726 61.0885 106.828C61.5875 105.909 61.8371 104.861 61.8371 103.684C61.8371 102.506 61.5875 101.468 61.0885 100.569C60.5894 99.6512 59.9107 98.9425 59.0523 98.4435C58.1939 97.9444 57.2358 97.6949 56.1777 97.6949C55.1197 97.6949 54.1616 97.9444 53.3032 98.4435C52.4448 98.9425 51.7661 99.6512 51.267 100.569C50.768 101.468 50.5184 102.506 50.5184 103.684C50.5184 104.861 50.768 105.909 51.267 106.828C51.7661 107.726 52.4448 108.425 53.3032 108.924C54.1616 109.423 55.1197 109.672 56.1777 109.672ZM70.931 93.2034H80.8423C83.138 93.2034 85.1741 93.6326 86.9508 94.4909C88.7274 95.3493 90.1048 96.567 91.083 98.144C92.0611 99.7211 92.5502 101.568 92.5502 103.684C92.5502 105.8 92.0611 107.646 91.083 109.223C90.1048 110.8 88.7274 112.018 86.9508 112.876C85.1741 113.735 83.138 114.164 80.8423 114.164H70.931V93.2034ZM80.6028 109.433C82.3994 109.433 83.8367 108.924 84.9146 107.906C86.0125 106.888 86.5615 105.48 86.5615 103.684C86.5615 101.887 86.0125 100.48 84.9146 99.4616C83.8367 98.4435 82.3994 97.9344 80.6028 97.9344H76.8598V109.433H80.6028ZM120.824 107.567V114.164H96.5917V83.9808H120.264V90.5779H105.043V95.6659H118.453V102.047H105.043V107.567H120.824ZM124.64 93.2034H134.551C136.847 93.2034 138.883 93.6326 140.66 94.4909C142.436 95.3493 143.814 96.567 144.792 98.144C145.77 99.7211 146.259 101.568 146.259 103.684C146.259 105.8 145.77 107.646 144.792 109.223C143.814 110.8 142.436 112.018 140.66 112.876C138.883 113.735 136.847 114.164 134.551 114.164H124.64V93.2034ZM134.312 109.433C136.108 109.433 137.545 108.924 138.623 107.906C139.721 106.888 140.27 105.48 140.27 103.684C140.27 101.887 139.721 100.48 138.623 99.4616C137.545 98.4435 136.108 97.9344 134.312 97.9344H130.569V109.433H134.312Z" fill="url(#paint4_linear)"/>
<defs>
<filter id="filter0_d" x="53.2994" y="11.3785" width="52.1017" height="52.1017" filterUnits="userSpaceOnUse" color-interpolation-filters="sRGB">
<feFlood flood-opacity="0" result="BackgroundImageFix"/>
<feColorMatrix in="SourceAlpha" type="matrix" values="0 0 0 0 0 0 0 0 0 0 0 0 0 0 0 0 0 0 127 0"/>
<feOffset dy="1.19774"/>
<feGaussianBlur stdDeviation="1.49718"/>
<feColorMatrix type="matrix" values="0 0 0 0 0 0 0 0 0 0 0 0 0 0 0 0 0 0 0.25 0"/>
<feBlend mode="normal" in2="BackgroundImageFix" result="effect1_dropShadow"/>
<feBlend mode="normal" in="SourceGraphic" in2="effect1_dropShadow" result="shape"/>
</filter>
<linearGradient id="paint0_linear" x1="104.054" y1="73.661" x2="165.438" y2="11.0791" gradientUnits="userSpaceOnUse">
<stop stop-color="#FFFBFB"/>
<stop offset="1" stop-color="#FFDFDF"/>
</linearGradient>
<linearGradient id="paint1_linear" x1="54.9463" y1="-2.09606" x2="-6.43785" y2="60.4859" gradientUnits="userSpaceOnUse">
<stop stop-color="#FFFBFB"/>
<stop offset="1" stop-color="#FFDFDF"/>
</linearGradient>
<linearGradient id="paint2_linear" x1="55.2457" y1="4.94068" x2="102.556" y2="68.1215" gradientUnits="userSpaceOnUse">
<stop stop-color="#FFDFDF"/>
<stop offset="1" stop-color="#FFFBFB"/>
</linearGradient>
<linearGradient id="paint3_linear" x1="97.7655" y1="13.1751" x2="60.4859" y2="59.2881" gradientUnits="userSpaceOnUse">
<stop stop-color="#FF7890"/>
<stop offset="1" stop-color="#FF280B"/>
</linearGradient>
<linearGradient id="paint4_linear" x1="2.99435" y1="84.2909" x2="162.593" y2="116.181" gradientUnits="userSpaceOnUse">
<stop stop-color="#FFDBDB"/>
<stop offset="1" stop-color="white"/>
</linearGradient>
</defs>
</svg>
