<svg
								width="32"
								height="24"
								viewBox="0 0 32 24"
								fill="none"
								xmlns="http://www.w3.org/2000/svg"
							>
								<path
									d="M0.152 22.92C1.048 19.528 2.264 15.784 3.8 11.688C5.336 7.592 6.872 3.848 8.408 0.455996H14.648C14.072 2.88799 13.464 5.512 12.824 8.328C12.184 11.08 11.608 13.832 11.096 16.584C10.584 19.272 10.168 21.736 9.848 23.976H0.728L0.152 22.92ZM31.4293 1.512C30.5973 4.84 29.3813 8.584 27.7812 12.744C26.2453 16.84 24.7093 20.584 23.1733 23.976H16.9333C17.5733 21.544 18.1813 18.952 18.7573 16.2C19.3973 13.384 19.9733 10.632 20.4853 7.944C20.9973 5.192 21.4133 2.696 21.7333 0.455996H30.7573L31.4293 1.512Z"
									fill="#FFC4C4"
								/>
							</svg>